<svg width="20" height="20" viewBox="0 0 20 20" fill="none" xmlns="http://www.w3.org/2000/svg">
<path d="M16.875 1.25C17.9105 1.25 18.75 2.08947 18.75 3.125V8.75C18.75 9.78553 17.9105 10.625 16.875 10.625H15.625C15.2798 10.625 15 10.3452 15 10C15 9.65482 15.2798 9.375 15.625 9.375H16.875C17.2202 9.375 17.5 9.09518 17.5 8.75V3.125C17.5 2.77982 17.2202 2.5 16.875 2.5H8.125C7.77982 2.5 7.5 2.77982 7.5 3.125V7.48438C7.5 7.82955 7.22018 8.10938 6.875 8.10938C6.52982 8.10938 6.25 7.82955 6.25 7.48438V3.125C6.25 2.08947 7.08947 1.25 8.125 1.25H16.875Z" fill="black"/>
<path d="M10 12.5L8.125 12.5V11.25H6.875V12.5L5 12.5L5 13.75H6.86736C6.83099 14.33 6.66674 14.7721 6.41597 15.0707C6.14485 15.3934 5.70879 15.625 5 15.625V16.875C6.00996 16.875 6.8239 16.5285 7.3731 15.8747C7.41758 15.8217 7.45986 15.7673 7.5 15.7115C7.54015 15.7673 7.58242 15.8217 7.6269 15.8747C8.1761 16.5285 8.99004 16.875 10 16.875V15.625C9.29121 15.625 8.85515 15.3934 8.58403 15.0707C8.33326 14.7721 8.16901 14.33 8.13264 13.75H10V12.5Z" fill="black"/>
<path fill-rule="evenodd" clip-rule="evenodd" d="M11.875 9.375C12.9105 9.375 13.75 10.2145 13.75 11.25V16.875C13.75 17.9105 12.9105 18.75 11.875 18.75H3.125C2.08947 18.75 1.25 17.9105 1.25 16.875V11.25C1.25 10.2145 2.08947 9.375 3.125 9.375H11.875ZM12.5 11.25C12.5 10.9048 12.2202 10.625 11.875 10.625H3.125C2.77982 10.625 2.5 10.9048 2.5 11.25V16.875C2.5 17.2202 2.77982 17.5 3.125 17.5H11.875C12.2202 17.5 12.5 17.2202 12.5 16.875V11.25Z" fill="black"/>
<path fill-rule="evenodd" clip-rule="evenodd" d="M9.875 8.125H11.0695L11.4603 7.06758H13.5765L13.96 8.125H15.125L13.2079 3.125H11.8069L9.875 8.125ZM12.9277 5.26085L13.2669 6.19223H11.7848L12.1313 5.26085C12.264 4.89671 12.3968 4.51856 12.5147 4.1124H12.5442C12.6696 4.49755 12.8023 4.89671 12.9277 5.26085Z" fill="black"/>
</svg>
