<svg width="20" height="20" viewBox="0 0 20 20" fill="none" xmlns="http://www.w3.org/2000/svg">
<path fill-rule="evenodd" clip-rule="evenodd" d="M5 3.125C5 2.08947 5.83947 1.25 6.875 1.25H13.125C14.1605 1.25 15 2.08947 15 3.125V16.875C15 17.9105 14.1605 18.75 13.125 18.75H6.875C5.83947 18.75 5 17.9105 5 16.875V3.125ZM6.875 2.5C6.52982 2.5 6.25 2.77982 6.25 3.125V16.875C6.25 17.2202 6.52982 17.5 6.875 17.5H13.125C13.4702 17.5 13.75 17.2202 13.75 16.875V3.125C13.75 2.77982 13.4702 2.5 13.125 2.5H6.875Z" fill="black"/>
<path d="M8.75 8H9.58708V12H8.75V8Z" fill="black"/>
<path d="M10.4129 8H11.25V12H10.4129V8Z" fill="black"/>
</svg>
