<svg width="20" height="20" viewBox="0 0 20 20" fill="none" xmlns="http://www.w3.org/2000/svg">
<path fill-rule="evenodd" clip-rule="evenodd" d="M1.25 4.375C1.25 3.33947 2.08947 2.5 3.125 2.5H13.75C14.7855 2.5 15.625 3.33947 15.625 4.375V6.25C15.625 6.59518 15.3452 6.875 15 6.875C14.6548 6.875 14.375 6.59518 14.375 6.25V4.375C14.375 4.02982 14.0952 3.75 13.75 3.75H3.125C2.77982 3.75 2.5 4.02982 2.5 4.375L2.5 15.625C2.5 15.9702 2.77982 16.25 3.125 16.25H11.25C11.5952 16.25 11.875 16.5298 11.875 16.875C11.875 17.2202 11.5952 17.5 11.25 17.5H3.125C2.08947 17.5 1.25 16.6605 1.25 15.625L1.25 4.375Z" fill="black"/>
<path d="M3.75 7.8125C3.75 7.63991 3.88991 7.5 4.0625 7.5H11.5625C11.7351 7.5 11.875 7.63991 11.875 7.8125V8.4375C11.875 8.61009 11.7351 8.75 11.5625 8.75H4.0625C3.88991 8.75 3.75 8.61009 3.75 8.4375V7.8125Z" fill="black"/>
<path d="M3.75 12.8125C3.75 12.6399 3.88991 12.5 4.0625 12.5H10.3125C10.4851 12.5 10.625 12.6399 10.625 12.8125V13.4375C10.625 13.6101 10.4851 13.75 10.3125 13.75H4.0625C3.88991 13.75 3.75 13.6101 3.75 13.4375V12.8125Z" fill="black"/>
<path d="M3.75 10.3125C3.75 10.1399 3.88991 10 4.0625 10H9.0625C9.23509 10 9.375 10.1399 9.375 10.3125V10.9375C9.375 11.1101 9.23509 11.25 9.0625 11.25H4.0625C3.88991 11.25 3.75 11.1101 3.75 10.9375V10.3125Z" fill="black"/>
<path d="M3.75 5.3125C3.75 5.13991 3.88991 5 4.0625 5H11.5625C11.7351 5 11.875 5.13991 11.875 5.3125V5.9375C11.875 6.11009 11.7351 6.25 11.5625 6.25H4.0625C3.88991 6.25 3.75 6.11009 3.75 5.9375V5.3125Z" fill="black"/>
<path fill-rule="evenodd" clip-rule="evenodd" d="M16.3924 8.26628C16.6595 8.0477 17.0533 8.08707 17.2719 8.35422C18.1941 9.48132 18.7479 10.9266 18.7479 12.5C18.7479 14.0734 18.1941 15.5187 17.2719 16.6458C17.0533 16.9129 16.6595 16.9523 16.3924 16.7337C16.1252 16.5151 16.0858 16.1214 16.3044 15.8542C17.0499 14.943 17.4979 13.7754 17.4979 12.5C17.4979 11.2246 17.0499 10.057 16.3044 9.14578C16.0858 8.87863 16.1252 8.48486 16.3924 8.26628Z" fill="black"/>
<path fill-rule="evenodd" clip-rule="evenodd" d="M14.2959 9.50487C14.5635 9.28684 14.9572 9.32703 15.1752 9.59463C15.8191 10.385 16.2055 11.3981 16.2055 12.5C16.2055 13.6019 15.8191 14.615 15.1752 15.4054C14.9572 15.673 14.5635 15.7132 14.2959 15.4951C14.0283 15.2771 13.9881 14.8834 14.2061 14.6158C14.674 14.0415 14.9555 13.3054 14.9555 12.5C14.9555 11.6946 14.674 10.9585 14.2061 10.3842C13.9881 10.1166 14.0283 9.7229 14.2959 9.50487Z" fill="black"/>
<path fill-rule="evenodd" clip-rule="evenodd" d="M12.2323 10.8379C12.5008 10.621 12.8943 10.6629 13.1112 10.9314C13.4567 11.3591 13.6631 11.9066 13.6631 12.5C13.6631 13.0934 13.4567 13.6409 13.1112 14.0686C12.8943 14.3371 12.5008 14.3789 12.2323 14.1621C11.9638 13.9452 11.9219 13.5517 12.1388 13.2831C12.3095 13.0717 12.4131 12.7999 12.4131 12.5C12.4131 12.2001 12.3095 11.9283 12.1388 11.7169C11.9219 11.4483 11.9638 11.0548 12.2323 10.8379Z" fill="black"/>
</svg>
