<svg width="20" height="20" viewBox="0 0 20 20" fill="none" xmlns="http://www.w3.org/2000/svg">
<path fill-rule="evenodd" clip-rule="evenodd" d="M1.25 3.125C1.25 2.08947 2.08947 1.25 3.125 1.25H11.25C12.2855 1.25 13.125 2.08947 13.125 3.125V6.875C13.125 7.22018 12.8452 7.5 12.5 7.5C12.1548 7.5 11.875 7.22018 11.875 6.875V3.125C11.875 2.77982 11.5952 2.5 11.25 2.5H3.125C2.77982 2.5 2.5 2.77982 2.5 3.125V11.25C2.5 11.5952 2.77982 11.875 3.125 11.875H5C5.34518 11.875 5.625 12.1548 5.625 12.5C5.625 12.8452 5.34518 13.125 5 13.125H3.125C2.08947 13.125 1.25 12.2855 1.25 11.25V3.125Z" fill="black"/>
<path fill-rule="evenodd" clip-rule="evenodd" d="M6.69866 11.5704C6.75679 11.3204 6.96176 11.1314 7.21557 11.0937L9.69739 10.725L9.52522 8.22188C9.50761 7.96589 9.64826 7.72515 9.87989 7.61477C10.1115 7.50439 10.3871 7.54681 10.5748 7.72173L12.4105 9.43222L14.2602 7.73692C14.4493 7.56355 14.7252 7.52341 14.956 7.63569C15.1867 7.74797 15.3253 7.98987 15.3056 8.2457L15.1128 10.7473L17.5915 11.1365C17.845 11.1763 18.0484 11.367 18.1045 11.6174C18.1606 11.8678 18.0579 12.127 17.8456 12.2711L15.7695 13.6801L17.0107 15.8607C17.1376 16.0836 17.1154 16.3616 16.9546 16.5615C16.7938 16.7615 16.5271 16.8428 16.282 16.7667L13.886 16.022L12.9551 18.352C12.8599 18.5903 12.6287 18.7462 12.3721 18.7451C12.1155 18.744 11.8856 18.5863 11.7924 18.3472L10.8807 16.0097L8.4786 16.7345C8.23295 16.8086 7.96695 16.7251 7.8078 16.5238C7.64864 16.3226 7.62867 16.0445 7.75744 15.8225L9.01657 13.6523L6.95218 12.2262C6.74106 12.0803 6.64053 11.8203 6.69866 11.5704ZM8.9652 12.0975L10.2023 12.9521C10.4706 13.1374 10.5513 13.4979 10.3876 13.78L9.63311 15.0805L11.0725 14.6461C11.3847 14.5519 11.7169 14.7135 11.8354 15.0173L12.3817 16.4181L12.9396 15.0219C13.0606 14.7191 13.394 14.5602 13.7054 14.6569L15.1412 15.1032L14.3974 13.7965C14.2361 13.5131 14.3198 13.1533 14.5896 12.9702L15.8337 12.1258L14.3484 11.8926C14.0262 11.8421 13.7971 11.5523 13.8221 11.2272L13.9377 9.7281L12.8293 10.744C12.5889 10.9643 12.2195 10.9628 11.9809 10.7405L10.8809 9.7155L10.9841 11.2155C11.0065 11.5408 10.775 11.8287 10.4524 11.8766L8.9652 12.0975Z" fill="black"/>
<path fill-rule="evenodd" clip-rule="evenodd" d="M6.55471 5.625H5V4.375H9.375V5.625H7.80471V9.375H6.55471V5.625Z" fill="black"/>
</svg>
