<svg width="20" height="21" viewBox="0 0 20 21" fill="none" xmlns="http://www.w3.org/2000/svg">
<g clip-path="url(#clip0_2449_24583)">
<path d="M9.67166 16.8919C6.21693 17.8353 2.65155 15.7994 1.70816 12.3447C0.764769 8.88997 2.80061 5.32459 6.25534 4.3812C7.43539 4.05896 8.62835 4.08432 9.72531 4.39509" stroke="black" stroke-width="1.5625" stroke-linecap="round" stroke-linejoin="round" stroke-dasharray="0 3.34"/>
<path d="M9.50085 7.5C9.50085 7.22386 9.72471 7 10.0009 7H13.2509C13.527 7 13.7509 7.22386 13.7509 7.5C13.7509 7.77614 13.527 8 13.2509 8H10.0009C9.72471 8 9.50085 7.77614 9.50085 7.5Z" fill="black"/>
<path d="M9.99988 9C9.72374 9 9.49988 9.22386 9.49988 9.5C9.49988 9.77614 9.72374 10 9.99988 10H11.501C11.7771 10 12.001 9.77614 12.001 9.5C12.001 9.22386 11.7771 9 11.501 9H9.99988Z" fill="black"/>
<path d="M17.2755 7.49999C16.885 7.10946 16.2518 7.10946 15.8613 7.49999L11.6473 11.714C11.5535 11.8078 11.5009 11.9349 11.5009 12.0676V14C11.5009 14.2761 11.7247 14.5 12.0009 14.5H13.9333C14.0659 14.5 14.1931 14.4473 14.2868 14.3535L18.5009 10.1395C18.8914 9.749 18.8914 9.11584 18.5009 8.72531L17.2755 7.49999Z" fill="black"/>
</g>
<defs>
<clipPath id="clip0_2449_24583">
<rect width="20" height="20" fill="white" transform="translate(0 0.5)"/>
</clipPath>
</defs>
</svg>
