<svg width="20" height="20" viewBox="0 0 20 20" fill="none" xmlns="http://www.w3.org/2000/svg">
<path fill-rule="evenodd" clip-rule="evenodd" d="M15.3228 4.51645C15.5898 4.29775 15.9836 4.33695 16.2023 4.60401C17.4035 6.07081 18.125 7.95163 18.125 10C18.125 12.0484 17.4035 13.9292 16.2023 15.396C15.9836 15.663 15.5898 15.7022 15.3228 15.4835C15.0557 15.2648 15.0165 14.8711 15.2352 14.604C16.2596 13.3531 16.875 11.7501 16.875 10C16.875 8.24992 16.2596 6.64689 15.2352 5.39599C15.0165 5.12893 15.0557 4.73515 15.3228 4.51645Z" fill="black"/>
<path fill-rule="evenodd" clip-rule="evenodd" d="M13.2917 5.82878C13.5589 5.6102 13.9526 5.64957 14.1712 5.91672C15.0795 7.02684 15.625 8.45033 15.625 10C15.625 11.5497 15.0795 12.9732 14.1712 14.0833C13.9526 14.3504 13.5589 14.3898 13.2917 14.1712C13.0246 13.9526 12.9852 13.5589 13.2038 13.2917C13.9354 12.3975 14.375 11.2517 14.375 10C14.375 8.74831 13.9354 7.60247 13.2038 6.70828C12.9852 6.44113 13.0246 6.04736 13.2917 5.82878Z" fill="black"/>
<path fill-rule="evenodd" clip-rule="evenodd" d="M11.2302 7.04671C11.4978 6.82868 11.8915 6.86887 12.1095 7.13647C12.7442 7.91543 13.125 8.91399 13.125 10C13.125 11.086 12.7442 12.0846 12.1095 12.8635C11.8915 13.1311 11.4978 13.1713 11.2302 12.9533C10.9626 12.7353 10.9224 12.3416 11.1405 12.074C11.5991 11.5111 11.875 10.7895 11.875 10C11.875 9.21052 11.5991 8.48893 11.1405 7.92603C10.9224 7.65842 10.9626 7.26474 11.2302 7.04671Z" fill="black"/>
<path fill-rule="evenodd" clip-rule="evenodd" d="M9.20105 8.35753C9.46958 8.14065 9.86309 8.18252 10.08 8.45105C10.4211 8.87342 10.625 9.41402 10.625 10C10.625 10.586 10.4211 11.1266 10.08 11.549C9.86309 11.8175 9.46958 11.8594 9.20105 11.6425C8.93252 11.4256 8.89065 11.0321 9.10753 10.7635C9.27399 10.5575 9.375 10.2924 9.375 10C9.375 9.70759 9.27399 9.44255 9.10753 9.23645C8.89065 8.96792 8.93252 8.57442 9.20105 8.35753Z" fill="black"/>
<path fill-rule="evenodd" clip-rule="evenodd" d="M8.51384 2.78125H8.51746C8.94893 2.78136 9.29863 3.13122 9.29852 3.56269C9.29841 3.99417 8.94855 4.34386 8.51707 4.34375H8.51422C8.08275 4.34385 7.73288 3.99416 7.73278 3.56269C7.73268 3.13122 8.08237 2.78135 8.51384 2.78125ZM5.95061 4.03841C6.1666 4.41193 6.0389 4.88982 5.66538 5.10581L5.66297 5.10721C5.28956 5.32339 4.8116 5.19592 4.59542 4.82251C4.37925 4.4491 4.50671 3.97114 4.88013 3.75496L4.8832 3.75319C5.25672 3.53719 5.73461 3.66489 5.95061 4.03841ZM11.1888 4.08587C11.4116 3.71632 11.8917 3.5973 12.2612 3.82001L12.2628 3.82096C12.6323 4.04377 12.7512 4.52393 12.5284 4.89342C12.3056 5.26291 11.8254 5.38182 11.4559 5.15901L11.4547 5.15826C11.0852 4.93554 10.9661 4.45542 11.1888 4.08587ZM3.29126 6.12668C3.66467 6.34285 3.79214 6.82081 3.57596 7.19422L3.57456 7.19663C3.35857 7.57015 2.88068 7.69785 2.50716 7.48186C2.13364 7.26586 2.00594 6.78797 2.22194 6.41445L2.22371 6.41138C2.43989 6.03797 2.91784 5.9105 3.29126 6.12668ZM2.03144 9.26403C2.46291 9.26413 2.8126 9.614 2.8125 10.0455V10.0483C2.8126 10.4798 2.46291 10.8296 2.03144 10.8297C1.59997 10.8298 1.2501 10.4801 1.25 10.0487V10.0451C1.2501 9.61362 1.59997 9.26393 2.03144 9.26403ZM2.50716 12.6119C2.88068 12.3959 3.35857 12.5236 3.57456 12.8971L3.57596 12.8995C3.79214 13.2729 3.66467 13.7509 3.29126 13.9671C2.91785 14.1833 2.43989 14.0558 2.22371 13.6824L2.22194 13.6793C2.00594 13.3058 2.13364 12.8279 2.50716 12.6119ZM12.5284 15.2003C12.7512 15.5698 12.6323 16.05 12.2628 16.2728L12.2612 16.2737C11.8917 16.4965 11.4116 16.3774 11.1888 16.0079C10.9661 15.6383 11.0852 15.1582 11.4547 14.9355L11.4559 14.9347C11.8254 14.7119 12.3056 14.8308 12.5284 15.2003ZM4.59543 15.2712C4.8116 14.8978 5.28956 14.7704 5.66297 14.9865L5.66538 14.9879C6.0389 15.2039 6.1666 15.6818 5.95061 16.0553C5.73461 16.4289 5.25672 16.5566 4.8832 16.3406L4.88013 16.3388C4.50672 16.1226 4.37925 15.6447 4.59543 15.2712ZM7.73278 16.5311C7.73288 16.0996 8.08275 15.7499 8.51422 15.75H8.51707C8.94855 15.7499 9.29841 16.0996 9.29852 16.5311C9.29863 16.9625 8.94893 17.3124 8.51746 17.3125H8.51384C8.08237 17.3124 7.73268 16.9625 7.73278 16.5311Z" fill="black"/>
</svg>
