<svg width="24" height="24" viewBox="0 0 24 24" fill="none" xmlns="http://www.w3.org/2000/svg">
<path d="M18.8633 6C20.1986 7.63062 21.0008 9.72093 21.0008 12C21.0008 14.2791 20.1986 16.3694 18.8633 18" stroke="black" stroke-width="1.5" stroke-linecap="round" stroke-linejoin="round"/>
<path d="M16.4258 7.5752C17.4097 8.77778 18.0008 10.3194 18.0008 12.0002C18.0008 13.681 17.4097 15.2226 16.4258 16.4252" stroke="black" stroke-width="1.5" stroke-linecap="round" stroke-linejoin="round"/>
<path d="M13.9492 9.0376C14.6052 9.84272 14.9992 10.8748 14.9992 12.0001C14.9992 13.1254 14.6052 14.1575 13.9492 14.9626" stroke="black" stroke-width="1.5" stroke-linecap="round" stroke-linejoin="round"/>
<path d="M11.5117 10.6123C11.8163 10.9894 11.9992 11.4728 11.9992 11.9998C11.9992 12.5268 11.8163 13.0102 11.5117 13.3873" stroke="black" stroke-width="1.5" stroke-linecap="round" stroke-linejoin="round"/>
<path d="M14.25 5.46401C13.1559 4.85023 11.8922 4.5 10.5462 4.5C6.37855 4.5 3 7.85786 3 12C3 16.1421 6.37855 19.5 10.5462 19.5C11.8922 19.5 13.1559 19.1498 14.25 18.536" stroke="black" stroke-width="1.5" stroke-linecap="round" stroke-linejoin="round"/>
</svg>
